Coordinates
version=1
nRows=19
nColumns=36
inDegrees=yes

Units are S.I. units (second, meters, Newtons, ...)
If the header above contains a line with 'inDegrees', this indicates whether rotational values are in degrees (yes) or radians (no).

endheader
time	pelvis_tilt	pelvis_list	pelvis_rotation	pelvis_tx	pelvis_ty	pelvis_tz	hip_flexion_r	hip_adduction_r	hip_rotation_r	knee_angle_r	knee_angle_r_beta	ankle_angle_r	subtalar_angle_r	mtp_angle_r	hip_flexion_l	hip_adduction_l	hip_rotation_l	knee_angle_l	knee_angle_l_beta	ankle_angle_l	subtalar_angle_l	mtp_angle_l	lumbar_extension	lumbar_bending	lumbar_rotation	arm_flex_r	arm_add_r	arm_rot_r	elbow_flex_r	pro_sup_r	arm_flex_l	arm_add_l	arm_rot_l	elbow_flex_l	pro_sup_l
      0.00000000	     -0.02694241	     -3.01581006	     -1.38522668	      0.52711817	      0.77709595	     -0.15351782	     60.80889068	     -2.27818886	     -4.29590953	     27.47145076	      0.47946727	     -5.50419698	      3.28484372	     -6.61036550	     42.95220348	      4.07287361	     -2.53362785	     74.80647455	      1.30561928	     29.87969938	    -15.51027868	     -6.61036550	    -38.47511262	      1.62903414	      1.65989427	     46.21888614	      6.89576710	     61.12737066	    123.47258646	    109.69115093	     49.29804770	      2.98197703	     54.35651016	    127.21304714	    104.99758850
      0.01666670	     -3.17509979	     -3.97155349	     -1.13738117	      0.53099034	      0.76952109	     -0.15212627	     60.77984973	     -1.28008563	     -3.54409019	     20.53936512	      0.35847955	      0.65397958	      9.31051359	     -6.66467513	     41.88215397	      4.43220410	     -0.19406207	     69.14830882	      1.20686566	     26.03479454	    -12.21747021	     -6.66467513	    -36.31077812	      2.15517448	      3.41581739	     45.70104598	      5.37538364	     62.86828317	    126.11179572	    110.09044247	     50.18437548	      4.06564619	     59.37985561	    128.38719373	    105.69490269
      0.03333330	     -4.63846202	     -3.88803304	      0.19801432	      0.53280208	      0.76049024	     -0.15393102	     61.93477796	     -2.72000240	     -3.51155729	     20.06868443	      0.35026462	      1.95379693	      9.77824715	     -6.67617777	     42.07223210	      6.30074246	      2.05095688	     67.11905852	      1.17144856	     25.85118517	    -11.04448841	     -6.67617777	    -35.78523305	      1.71241889	      3.66792758	     44.27560525	      3.78272026	     63.40210347	    128.20774310	    110.92748920	     51.80287081	      5.20863683	     62.62505350	    128.46474201	    106.58877365
      0.05000000	     -5.21321950	     -3.37173683	      1.93142251	      0.53122281	      0.75552425	     -0.14829874	     62.86809704	     -3.69919245	     -3.17678167	     20.05163768	      0.34996710	      1.78376605	      8.78368361	     -6.69385094	     44.07343952	      7.89759499	      3.28775852	     69.05219588	      1.20518817	     27.57856709	     -8.72711146	     -6.69385094	    -36.66749475	      1.15262236	      3.20253919	     44.70813105	      3.60669206	     64.03745625	    128.46888414	    110.97179965	     53.74353478	      5.55711546	     65.00752534	    128.39587567	    106.41817323
      0.06666670	     -5.21838234	     -3.61862316	      3.34939432	      0.52654490	      0.75402647	     -0.14648129	     63.24486077	     -4.18711138	     -3.04416062	     20.96306268	      0.36587447	      2.47385846	      6.57936858	     -6.76828934	     45.89222464	      8.67167971	      4.97889630	     71.34902007	      1.24527532	     28.11992197	     -8.76643549	     -6.76828934	    -37.74074402	      1.66826785	      3.07794357	     45.11054336	      3.52801790	     64.21486339	    127.80375246	    109.18485071	     55.05412398	      5.69114951	     65.64288799	    128.34989212	    104.19961035
      0.08333330	     -5.38600182	     -3.76478726	      4.36939580	      0.52431248	      0.75225434	     -0.14638744	     63.58211608	     -4.40491889	     -1.99579469	     21.20126326	      0.37003185	      2.15722559	      3.48135070	     -6.87551757	     47.13089162	      9.07572156	      5.90705700	     72.82274898	      1.27099674	     28.45074974	     -8.09620303	     -6.87551757	    -38.56250610	      1.90779365	      2.84350124	     45.83235716	      3.62386613	     64.62411330	    127.21186420	    108.35541027	     56.35183937	      5.55355457	     66.42697865	    128.26282107	    100.82468660
      0.10000000	     -5.51071044	     -3.70976723	      4.96789585	      0.52144654	      0.74852160	     -0.14446631	     63.97708489	     -4.50131453	     -1.03118305	     21.63648383	      0.37762788	      1.50919799	      1.92386383	     -6.96399840	     48.17345297	      9.27324816	      6.14939765	     73.93138081	      1.29034602	     27.93993978	     -8.43653600	     -6.96399840	    -39.36354986	      1.86496430	      2.46845394	     46.34526836	      3.87652555	     64.74482813	    126.81156064	    107.61457850	     57.53029331	      5.06711783	     66.22488603	    128.60387588	     99.25301628
      0.11666670	     -5.33142075	     -4.05929545	      5.42747244	      0.51644806	      0.74478853	     -0.14089453	     64.16415945	     -4.28625077	     -0.58232160	     22.02637684	      0.38443280	      0.68253713	      0.55368352	     -7.03806385	     48.97802617	      9.00676449	      6.54873765	     74.99151499	      1.30884885	     27.15201575	     -8.86429746	     -7.03806385	    -40.48979858	      1.86087238	      2.47281029	     47.56832615	      4.31031688	     64.64965074	    126.92896034	    105.43903146	     59.16328891	      4.88616634	     66.17118003	    128.94384354	     97.01672719
      0.13333330	     -5.27715567	     -4.19996061	      5.79708073	      0.51657073	      0.74081754	     -0.14174593	     64.28330947	     -4.28674102	     -0.69465767	     21.98139530	      0.38364772	      0.47648177	      0.37996447	     -7.04167899	     49.47839548	      9.04446575	      6.75515280	     75.74768840	      1.32204656	     27.19103861	     -9.12418068	     -7.04167899	    -41.12982787	      1.77436768	      2.35555986	     48.42859551	      4.57842050	     64.53987648	    126.87221984	    105.57215661	     60.47815793	      4.83154405	     65.53521385	    128.85784886	     97.05260808
      0.15000000	     -4.89087561	     -4.51095011	      6.37696915	      0.51499525	      0.73923402	     -0.14143188	     63.74905795	     -4.35514130	     -0.95866972	     21.67264269	      0.37825897	      0.17353951	     -0.07562900	     -7.11635447	     49.46829164	      9.15886415	      7.23678799	     76.10790930	      1.32833360	     26.39131934	     -9.84189915	     -7.11635447	    -42.15163764	      2.23304697	      2.08898358	     49.64652928	      4.95096672	     65.03209007	    126.67922910	    107.31396978	     61.14287902	      4.45126157	     64.66360575	    129.18873514	     97.88224997
      0.16666670	     -4.99928468	     -4.87179964	      6.69814405	      0.51413325	      0.73382511	     -0.14169994	     63.56931911	     -4.36064438	     -1.18344221	     20.60116192	      0.35955811	     -0.05554169	      0.62816538	     -7.16717562	     50.07681359	      9.23008615	      7.44768655	     76.78936713	      1.34022729	     27.24020803	     -9.34530710	     -7.16717562	    -42.33613020	      2.59772696	      2.13637134	     50.24446689	      4.97491149	     65.14350330	    126.86625932	    107.43616501	     61.42032556	      4.39889557	     64.25942521	    129.24711859	     97.70844714
      0.18333330	     -5.31137849	     -5.22899653	      6.70293563	      0.51337838	      0.73381856	     -0.14130009	     63.58672254	     -3.98069786	     -1.01885627	     20.33298294	      0.35487750	     -0.45931430	     -0.00422360	     -7.19404499	     50.76652142	      9.09407968	      7.68147988	     77.42707063	      1.35135731	     26.94219140	    -10.05966248	     -7.19404499	    -42.38199809	      2.88507769	      2.38109981	     50.64825781	      4.84427455	     65.69588773	    127.30223477	    108.31580737	     61.31858231	      4.31963936	     64.10779478	    129.17741307	     98.45962246
      0.20000000	     -5.29434623	     -5.15958581	      6.84364996	      0.51045759	      0.73251149	     -0.13878955	     63.31596233	     -3.86281987	     -1.17648916	     19.86992843	      0.34679567	     -0.89207030	     -0.38322977	     -7.29032496	     51.00700417	      9.13566809	      7.66996078	     77.56332530	      1.35373541	     26.36608745	     -9.74914058	     -7.29032496	    -42.67946017	      2.73508983	      2.55231314	     50.95304776	      4.78543421	     65.56703907	    127.63410552	    109.18055820	     61.53101208	      4.23958638	     64.12053411	    129.04089811	     97.25422302
      0.21666670	     -5.35675596	     -5.03510337	      7.25968445	      0.51078336	      0.73226101	     -0.13862473	     62.95643121	     -4.11314778	     -1.47068051	     19.15086692	      0.33424568	     -0.87943299	     -0.32433429	     -7.30226862	     51.16691118	      9.49882257	      7.88499507	     77.46277809	      1.35198053	     26.33770590	     -9.55964553	     -7.30226862	    -42.89307146	      2.85083314	      2.58017545	     50.82836216	      4.87878977	     65.46419863	    127.80354408	    109.04913907	     61.56283044	      4.17448203	     64.05481803	    129.17906148	     96.54091843
      0.23333330	     -5.08776161	     -5.13646180	      7.41234978	      0.51164863	      0.73198013	     -0.13940297	     62.20496579	     -3.94314238	     -1.98190725	     18.83819089	      0.32878846	     -0.73455337	     -0.38985142	     -7.39076876	     50.99207155	      9.58286605	      8.13054080	     77.42755416	      1.35136575	     25.71836737	     -9.52847927	     -7.39076876	    -43.46637804	      3.13928877	      3.10150655	     50.87822096	      4.89903315	     65.54294631	    128.01016105	    109.64984971	     61.75654091	      4.35529828	     64.16435118	    129.37835821	     99.05751294
      0.25000000	     -5.30286490	     -5.18081657	      7.65645941	      0.51147376	      0.73210264	     -0.13908042	     61.91893418	     -3.96113031	     -2.06586183	     18.20947662	      0.31781532	     -0.76584386	     -0.56096212	     -7.42156016	     50.89394387	      9.68153326	      8.24502686	     76.63288613	      1.33749618	     26.09072146	     -8.97898039	     -7.42156016	    -43.51097612	      3.47366886	      3.42572983	     50.71894296	      5.03611756	     65.84347716	    128.01082621	    110.26263998	     61.82217100	      4.56083101	     64.35240220	    129.69357988	     98.29957027
      0.26666670	     -5.47251095	     -5.44832165	      7.85592195	      0.51178205	      0.73169296	     -0.14003665	     61.57780460	     -3.83173474	     -2.15912322	     17.63568133	      0.30780070	     -0.57734270	     -0.22712771	     -7.43777745	     50.98564219	      9.59390191	      8.45180811	     76.29216383	      1.33154945	     26.56704061	     -8.59227645	     -7.43777745	    -43.38873138	      3.85361615	      3.86187829	     50.59017488	      4.94662808	     66.05737113	    128.27740876	    110.65434248	     61.90751845	      4.88625825	     64.64578822	    129.78770654	     98.81169211
      0.28333330	     -5.85120324	     -5.59353455	      8.02268565	      0.51120615	      0.73397206	     -0.13910356	     61.08796539	     -3.71314455	     -2.43970337	     16.46973865	      0.28745117	     -0.44698666	      0.43492189	     -7.44436588	     51.21465212	      9.52278274	      8.56287350	     75.90478044	      1.32478834	     26.85135221	     -8.46430257	     -7.44436588	    -43.20600410	      4.13719655	      4.20151059	     50.38168145	      5.00143148	     65.96717657	    128.24318771	    110.81771526	     62.22906341	      5.19371952	     64.80910376	    129.96896116	     98.33217582
      0.30000000	     -6.30721547	     -5.77419074	      8.24078127	      0.51162846	      0.73316646	     -0.13995021	     61.03440064	     -3.77932247	     -2.75154768	     15.69921107	      0.27400292	     -0.24401618	      0.95242521	     -7.45511462	     51.67805877	      9.76440515	      8.74619621	     75.67347630	      1.32075132	     26.53561362	     -9.18571058	     -7.45511462	    -42.75259214	      4.49556376	      4.74190713	     49.74962777	      4.88467774	     65.53226392	    128.47581833	    111.04177196	     62.21991388	      5.48904237	     65.07020057	    130.19702444	     99.14275944
